<svg width="18" height="18" viewBox="0 0 18 18" fill="none" xmlns="http://www.w3.org/2000/svg">
<circle cx="9" cy="9" r="5" fill="white"/>
<path d="M18 8.52917L16.0036 6.26285L16.2818 3.26546L13.3282 2.59937L11.7818 0L9 1.18596L6.21818 0L4.67182 2.59124L1.71818 3.24921L1.99636 6.25473L0 8.52917L1.99636 10.7955L1.71818 13.801L4.67182 14.4671L6.21818 17.0583L9 15.8643L11.7818 17.0502L13.3282 14.459L16.2818 13.7929L16.0036 10.7955L18 8.52917ZM6.85636 11.7865L4.90909 9.83698C4.83324 9.76183 4.77307 9.67257 4.73201 9.5743C4.69095 9.47604 4.66982 9.37069 4.66982 9.26431C4.66982 9.15792 4.69095 9.05258 4.73201 8.95431C4.77307 8.85605 4.83324 8.76678 4.90909 8.69164L4.96636 8.63477C5.28545 8.31798 5.80909 8.31798 6.12818 8.63477L7.44545 9.9507L11.6591 5.75922C11.9782 5.44243 12.5018 5.44243 12.8209 5.75922L12.8782 5.81608C13.1973 6.13288 13.1973 6.64463 12.8782 6.96143L8.03454 11.7865C7.69909 12.1033 7.18364 12.1033 6.85636 11.7865Z" fill="#0047FF"/>
</svg>
