<svg width="11" height="11" viewBox="0 0 11 11" fill="none" xmlns="http://www.w3.org/2000/svg">
<path d="M5.55283 0.0996094C5.73185 0.0996094 5.90354 0.170725 6.03013 0.297312C6.15672 0.423899 6.22783 0.595588 6.22783 0.774609V4.82461H10.2778C10.4569 4.82461 10.6285 4.89573 10.7551 5.02231C10.8817 5.1489 10.9528 5.32059 10.9528 5.49961C10.9528 5.67863 10.8817 5.85032 10.7551 5.97691C10.6285 6.10349 10.4569 6.17461 10.2778 6.17461H6.22783V10.2246C6.22783 10.4036 6.15672 10.5753 6.03013 10.7019C5.90354 10.8285 5.73185 10.8996 5.55283 10.8996C5.37381 10.8996 5.20212 10.8285 5.07554 10.7019C4.94895 10.5753 4.87783 10.4036 4.87783 10.2246V6.17461H0.827832C0.648811 6.17461 0.477122 6.10349 0.350535 5.97691C0.223948 5.85032 0.152832 5.67863 0.152832 5.49961C0.152832 5.32059 0.223948 5.1489 0.350535 5.02231C0.477122 4.89573 0.648811 4.82461 0.827832 4.82461H4.87783V0.774609C4.87783 0.595588 4.94895 0.423899 5.07554 0.297312C5.20212 0.170725 5.37381 0.0996094 5.55283 0.0996094Z" fill="white"/>
</svg>
