<svg width="25" height="25" viewBox="0 0 25 25" fill="none" xmlns="http://www.w3.org/2000/svg">
<path d="M23.8566 6.77476C23.5839 5.74829 22.7807 4.93987 21.7609 4.66552C19.9124 4.16699 12.5 4.16699 12.5 4.16699C12.5 4.16699 5.08767 4.16699 3.2391 4.66552C2.21927 4.93991 1.41606 5.74829 1.14344 6.77476C0.648132 8.63531 0.648132 12.5172 0.648132 12.5172C0.648132 12.5172 0.648132 16.399 1.14344 18.2596C1.41606 19.286 2.21927 20.0608 3.2391 20.3351C5.08767 20.8337 12.5 20.8337 12.5 20.8337C12.5 20.8337 19.9123 20.8337 21.7609 20.3351C22.7807 20.0608 23.5839 19.286 23.8566 18.2596C24.3519 16.399 24.3519 12.5172 24.3519 12.5172C24.3519 12.5172 24.3519 8.63531 23.8566 6.77476ZM10.0757 16.0416V8.99273L16.271 12.5173L10.0757 16.0416Z" fill="white" fill-opacity="0.5"/>
</svg>
