<svg width="22" height="21" viewBox="0 0 22 21" fill="none" xmlns="http://www.w3.org/2000/svg">
<path d="M1.5654 9.96978V17.4846H4.91425L5.08335 17.5035C8.19237 18.1923 10.2525 18.689 11.2793 18.9966C12.6431 19.4051 13.1515 19.5048 14.0766 19.5636C14.7685 19.6088 15.5543 19.3557 15.9124 19.0092C16.1103 18.8181 16.2584 18.4254 16.3169 17.8164C16.3291 17.6887 16.3771 17.5665 16.4561 17.4625C16.535 17.3585 16.6419 17.2766 16.7657 17.2253C17.0409 17.1119 17.2696 16.9271 17.4608 16.6583C17.6377 16.4126 17.7526 15.9548 17.7736 15.2922C17.7773 15.1704 17.8137 15.0515 17.8792 14.9468C17.9448 14.8421 18.0374 14.755 18.1483 14.6937C18.7915 14.3399 19.1099 13.9409 19.1762 13.4726C19.2491 12.9549 19.0723 12.3722 18.6092 11.7086C18.5005 11.553 18.4601 11.3632 18.4964 11.1797C18.5327 10.9961 18.643 10.8333 18.8037 10.7258C19.2469 10.4297 19.4901 10.0181 19.5508 9.43428C19.6481 8.50398 19.0236 7.81623 17.6101 7.67868C16.351 7.56038 15.0799 7.66108 13.8589 7.97583C13.7204 8.01022 13.5744 8.00631 13.4382 7.96456C13.3019 7.92282 13.1811 7.84497 13.0898 7.74018C12.9986 7.63539 12.9407 7.50803 12.923 7.37306C12.9054 7.23809 12.9287 7.10115 12.9902 6.97833C13.5428 5.86743 13.8501 4.95078 13.9219 4.24098C14.0158 3.29912 13.7871 2.61662 13.2521 2.05382C12.8465 1.62752 12.1977 1.38392 11.9546 1.43432C11.6341 1.49942 11.4252 1.67582 11.1533 2.29322C10.993 2.65862 10.9157 2.96942 10.783 3.69497C10.6559 4.38378 10.5863 4.69458 10.4415 5.10198C10.005 6.33678 8.93398 7.61673 7.49608 8.49978C6.48832 9.11793 5.39613 9.60194 4.25001 9.93828C4.17841 9.95925 4.10389 9.96987 4.02896 9.96978H1.5654ZM1.51898 18.9158C1.16199 18.9252 0.841475 18.8496 0.572904 18.6711C0.230282 18.4433 0.068918 18.0842 0.0656023 17.6705L0.068918 9.98133C0.0313402 9.57183 0.158442 9.19593 0.459065 8.91663C0.740899 8.65413 1.10894 8.53023 1.49798 8.53863H3.91291C4.88978 8.24292 5.82112 7.82559 6.68262 7.29753C7.84091 6.58563 8.69415 5.56503 9.02019 4.64523C9.13182 4.32813 9.1915 4.06563 9.30424 3.44822C9.45676 2.61977 9.55181 2.23442 9.77064 1.73882C10.2238 0.70772 10.8184 0.20372 11.6385 0.0346694C12.4453 -0.131231 13.6202 0.31082 14.3629 1.09202C15.1863 1.95722 15.5499 3.03977 15.4151 4.37748C15.3576 4.95288 15.1896 5.59653 14.9133 6.31368C15.8569 6.18303 16.8139 6.16328 17.7626 6.25488C19.9808 6.47013 21.2264 7.84248 21.0451 9.57708C20.9655 10.3247 20.6804 10.9599 20.1952 11.4587C20.603 12.2052 20.7655 12.9434 20.6638 13.6637C20.5467 14.4932 20.0604 15.1841 19.2513 15.7206C19.1883 16.4483 19.0126 17.0289 18.7009 17.4636C18.4553 17.8148 18.1349 18.1132 17.7604 18.3393C17.641 19.0575 17.3901 19.6193 16.9801 20.0141C16.3004 20.6714 15.0857 21.0631 13.976 20.9917C12.9228 20.9244 12.2994 20.8027 10.8295 20.3616C9.86017 20.0708 7.85307 19.5878 4.82805 18.9158H1.51788H1.51898ZM3.39898 9.64323C3.39869 9.54929 3.41792 9.45622 3.45555 9.36935C3.49319 9.28248 3.54851 9.20352 3.61832 9.137C3.68814 9.07048 3.77109 9.01769 3.86242 8.98168C3.95375 8.94567 4.05166 8.92713 4.15054 8.92713C4.24923 8.92741 4.34691 8.94615 4.43798 8.98228C4.52905 9.01842 4.61174 9.07125 4.68132 9.13774C4.75091 9.20424 4.80602 9.2831 4.84352 9.36984C4.88102 9.45657 4.90018 9.54947 4.89989 9.64323V17.7051C4.90003 17.7989 4.88074 17.8918 4.8431 17.9785C4.80547 18.0651 4.75023 18.1439 4.68054 18.2103C4.61086 18.2767 4.52809 18.3294 4.43696 18.3654C4.34583 18.4015 4.24813 18.4201 4.14943 18.4202C4.05074 18.4201 3.95304 18.4015 3.86191 18.3654C3.77078 18.3294 3.68801 18.2767 3.61833 18.2103C3.54864 18.1439 3.4934 18.0651 3.45577 17.9785C3.41813 17.8918 3.39884 17.7989 3.39898 17.7051V9.64323Z" fill="white"/>
</svg>
