<svg width="27" height="24" viewBox="0 0 27 24" fill="none" xmlns="http://www.w3.org/2000/svg">
<path d="M24.0461 2.88885L24.0455 2.88827C23.3584 2.21999 22.5481 1.68863 21.6583 1.32335L21.6573 1.32295C20.7344 0.942531 19.7442 0.747737 18.7445 0.75002L18.7428 0.750024C17.338 0.750022 15.9691 1.13166 14.7806 1.85105L14.7806 1.85107C14.4963 2.02316 14.2268 2.21182 13.9718 2.41703L13.5015 2.79548L13.0313 2.41703C12.7763 2.21182 12.5068 2.02316 12.2225 1.85107L12.2224 1.85105C11.034 1.13166 9.66512 0.750022 8.26032 0.750022C7.24745 0.750022 6.26954 0.942206 5.34575 1.32295L5.34494 1.32329C4.45189 1.69014 3.64813 2.21718 2.95735 2.88849L2.95633 2.88949C2.27048 3.55347 1.72292 4.34421 1.3444 5.21675L24.0461 2.88885ZM24.0461 2.88885C24.7313 3.55386 25.279 4.34473 25.6588 5.21704C26.0525 6.1248 26.2528 7.08612 26.25 8.07617V8.07832C26.25 9.00746 26.0588 9.99218 25.6657 11.012L25.665 11.0137M24.0461 2.88885L25.665 11.0137M6.83233 18.2519L6.83241 18.252C8.25653 19.5569 9.67669 20.6626 10.7572 21.4519C11.2969 21.8462 11.7505 22.1604 12.0754 22.3799C12.2379 22.4897 12.368 22.5756 12.4605 22.6359C12.5067 22.6661 12.5434 22.6897 12.5697 22.7066L12.6008 22.7263C12.6068 22.7301 12.6099 22.732 12.6109 22.7326C12.6111 22.7327 12.6112 22.7328 12.6112 22.7328L12.6229 22.74L12.6228 22.7401L13.3621 23.2105C13.3622 23.2106 13.3624 23.2107 13.3625 23.2108C13.4455 23.2631 13.5545 23.2631 13.6375 23.2108C13.6376 23.2107 13.6378 23.2106 13.6379 23.2105L14.3772 22.7401L14.3773 22.74C14.4844 22.6719 17.3115 20.8662 20.1679 18.2517C21.887 16.6768 23.2538 15.1392 24.2377 13.6837L6.83233 18.2519ZM6.83233 18.2519C5.11306 16.677 3.74622 15.1393 2.76227 13.6837L6.83233 18.2519ZM25.665 11.0137C25.3393 11.8649 24.8593 12.7631 24.2378 13.6837L25.665 11.0137ZM0.75 8.07832C0.75 7.08673 0.950653 6.12462 1.34437 5.2168L1.33412 11.0116C0.941149 9.99193 0.75 9.00734 0.75 8.07832ZM2.76222 13.6837C2.14169 12.7645 1.66388 11.8657 1.33427 11.012L2.76222 13.6837Z" stroke="white" stroke-width="1.5"/>
</svg>
