<svg width="20" height="22" viewBox="0 0 20 22" fill="none" xmlns="http://www.w3.org/2000/svg">
<path d="M14.5298 17.1623L14.7085 16.6541L15.0446 16.2806C15.2634 16.0375 15.5238 15.8464 15.809 15.7163C16.0936 15.5865 16.3982 15.5196 16.7049 15.5182H16.7094C17.1598 15.5182 17.6041 15.6595 17.9861 15.9299C18.3687 16.2007 18.6732 16.5902 18.8545 17.0541C19.036 17.5181 19.0841 18.0311 18.9911 18.5263C18.8981 19.0214 18.6695 19.4706 18.3404 19.8193C18.0118 20.1674 17.5984 20.3991 17.1552 20.4925C16.7124 20.5858 16.2529 20.5384 15.8328 20.3541C15.4122 20.1695 15.0455 19.8537 14.7845 19.4399C14.5233 19.0258 14.3815 18.5349 14.3814 18.0293C14.3821 17.7325 14.4326 17.4389 14.5298 17.1623ZM6.26696 11.5783L6.10009 12.1142L5.80455 12.4971C5.4959 12.897 5.08356 13.1791 4.62838 13.3133C4.17379 13.4472 3.6919 13.4292 3.24628 13.2608C2.79999 13.0921 2.40617 12.7784 2.12414 12.3546C1.84179 11.9303 1.6875 11.4192 1.6875 10.8916C1.6875 10.3639 1.84179 9.85275 2.12414 9.42849C2.40617 9.0047 2.79999 8.69097 3.24628 8.52229C3.6919 8.35387 4.17379 8.33586 4.62838 8.46982C5.08356 8.60395 5.4959 8.88613 5.80455 9.28598L6.10349 9.67326L6.26696 10.1983C6.40635 10.646 6.40635 11.1306 6.26696 11.5783ZM15.058 5.42548L14.7215 5.04987L14.5464 4.56333C14.3274 3.95508 14.3298 3.2805 14.553 2.67412C14.7759 2.06836 15.1991 1.58358 15.7285 1.30364C16.2563 1.02448 16.8587 0.96462 17.4222 1.13175L17.6352 0.413521L17.4222 1.13175C17.9869 1.29922 18.4841 1.68668 18.8083 2.23241C19.1332 2.77905 19.2569 3.43965 19.1499 4.08368C19.0429 4.72743 18.7152 5.29633 18.2427 5.68517C17.7716 6.07291 17.1889 6.2559 16.6077 6.2093C16.0261 6.16267 15.4725 5.88813 15.058 5.42548Z" stroke="white" stroke-width="1.5"/>
</svg>
